<svg width="46" height="37" viewBox="0 0 46 37" fill="none" xmlns="http://www.w3.org/2000/svg">
<path d="M16.6879 16H14.0316V9.35938C14.0316 9.17708 13.9958 9.00456 13.9242 8.8418C13.8591 8.67904 13.7647 8.53581 13.641 8.41211C13.5173 8.28841 13.3741 8.19401 13.2113 8.12891C13.0486 8.05729 12.876 8.02148 12.6938 8.02148C12.5115 8.02148 12.3389 8.05729 12.1762 8.12891C12.0199 8.19401 11.8799 8.28841 11.7563 8.41211C11.6391 8.53581 11.5447 8.67904 11.473 8.8418C11.4079 9.00456 11.3754 9.17708 11.3754 9.35938V16H8.70938V9.35938C8.70938 9.17708 8.67357 9.00456 8.60195 8.8418C8.53685 8.67904 8.44245 8.53581 8.31875 8.41211C8.19505 8.28841 8.05182 8.19401 7.88906 8.12891C7.7263 8.05729 7.55378 8.02148 7.37148 8.02148C7.18919 8.02148 7.01667 8.05729 6.85391 8.12891C6.69766 8.19401 6.55768 8.28841 6.43398 8.41211C6.3168 8.53581 6.2224 8.67904 6.15078 8.8418C6.08568 9.00456 6.05313 9.17708 6.05313 9.35938V16H3.38711V5.54102H4.03164L4.7543 6.3418C5.12539 6.0293 5.53229 5.78841 5.975 5.61914C6.42422 5.44336 6.88971 5.35547 7.37148 5.35547C7.85977 5.35547 8.33503 5.44661 8.79727 5.62891C9.26602 5.8112 9.67617 6.12695 10.0277 6.57617C10.1905 6.35482 10.376 6.16602 10.5844 6.00977C10.7927 5.85352 11.0108 5.72656 11.2387 5.62891C11.473 5.53125 11.7139 5.46289 11.9613 5.42383C12.2087 5.37826 12.4529 5.35547 12.6938 5.35547C13.2471 5.35547 13.7647 5.45964 14.2465 5.66797C14.7348 5.8763 15.1579 6.16276 15.516 6.52734C15.8806 6.88542 16.1671 7.30859 16.3754 7.79688C16.5837 8.28516 16.6879 8.80599 16.6879 9.35938V16ZM23.8855 2.69922C23.8855 2.94661 23.8367 3.17773 23.7391 3.39258C23.6479 3.60742 23.521 3.79622 23.3582 3.95898C23.1954 4.11523 23.0034 4.24219 22.782 4.33984C22.5672 4.43099 22.3361 4.47656 22.0887 4.47656C21.8413 4.47656 21.6069 4.43099 21.3855 4.33984C21.1707 4.24219 20.9819 4.11523 20.8191 3.95898C20.6629 3.79622 20.5359 3.60742 20.4383 3.39258C20.3471 3.17773 20.3016 2.94661 20.3016 2.69922C20.3016 2.45833 20.3471 2.23047 20.4383 2.01562C20.5359 1.79427 20.6629 1.60547 20.8191 1.44922C20.9819 1.28646 21.1707 1.15951 21.3855 1.06836C21.6069 0.970703 21.8413 0.921875 22.0887 0.921875C22.3361 0.921875 22.5672 0.970703 22.782 1.06836C23.0034 1.15951 23.1954 1.28646 23.3582 1.44922C23.521 1.60547 23.6479 1.79427 23.7391 2.01562C23.8367 2.23047 23.8855 2.45833 23.8855 2.69922ZM23.4266 16H20.741V5.54102H23.4266V16ZM30.2336 16H27.5676V5.54102H28.2121L29.091 6.55664C29.5207 6.16602 30.0057 5.86654 30.5461 5.6582C31.093 5.44336 31.6626 5.33594 32.2551 5.33594C32.8931 5.33594 33.4953 5.45964 34.0617 5.70703C34.6281 5.94792 35.1229 6.2832 35.5461 6.71289C35.9693 7.13607 36.3013 7.63411 36.5422 8.20703C36.7896 8.77344 36.9133 9.37891 36.9133 10.0234V16H34.2473V10.0234C34.2473 9.75 34.1952 9.49284 34.091 9.25195C33.9869 9.00456 33.8436 8.78971 33.6613 8.60742C33.479 8.42513 33.2675 8.2819 33.0266 8.17773C32.7857 8.07357 32.5285 8.02148 32.2551 8.02148C31.9751 8.02148 31.7115 8.07357 31.4641 8.17773C31.2167 8.2819 31.0018 8.42513 30.8195 8.60742C30.6372 8.78971 30.494 9.00456 30.3898 9.25195C30.2857 9.49284 30.2336 9.75 30.2336 10.0234V16ZM44.0621 2.69922C44.0621 2.94661 44.0133 3.17773 43.9156 3.39258C43.8245 3.60742 43.6975 3.79622 43.5348 3.95898C43.372 4.11523 43.1799 4.24219 42.9586 4.33984C42.7438 4.43099 42.5126 4.47656 42.2652 4.47656C42.0178 4.47656 41.7835 4.43099 41.5621 4.33984C41.3473 4.24219 41.1585 4.11523 40.9957 3.95898C40.8395 3.79622 40.7125 3.60742 40.6148 3.39258C40.5237 3.17773 40.4781 2.94661 40.4781 2.69922C40.4781 2.45833 40.5237 2.23047 40.6148 2.01562C40.7125 1.79427 40.8395 1.60547 40.9957 1.44922C41.1585 1.28646 41.3473 1.15951 41.5621 1.06836C41.7835 0.970703 42.0178 0.921875 42.2652 0.921875C42.5126 0.921875 42.7438 0.970703 42.9586 1.06836C43.1799 1.15951 43.372 1.28646 43.5348 1.44922C43.6975 1.60547 43.8245 1.79427 43.9156 2.01562C44.0133 2.23047 44.0621 2.45833 44.0621 2.69922ZM43.6031 16H40.9176V5.54102H43.6031V16Z" fill="#0B2B51"/>
<path d="M12.7477 34.5645C12.0966 35.1243 11.3674 35.554 10.5602 35.8535C9.75286 36.153 8.91628 36.3027 8.05039 36.3027C7.38633 36.3027 6.74505 36.2148 6.12656 36.0391C5.51458 35.8698 4.93841 35.6289 4.39805 35.3164C3.86419 34.9974 3.37591 34.6165 2.9332 34.1738C2.49049 33.7311 2.10964 33.2428 1.79062 32.709C1.47812 32.1686 1.23398 31.5924 1.0582 30.9805C0.888932 30.362 0.804296 29.7207 0.804296 29.0566C0.804296 28.3926 0.888932 27.7513 1.0582 27.1328C1.23398 26.5143 1.47812 25.9382 1.79062 25.4043C2.10964 24.8639 2.49049 24.3724 2.9332 23.9297C3.37591 23.487 3.86419 23.1094 4.39805 22.7969C4.93841 22.4779 5.51458 22.2337 6.12656 22.0645C6.74505 21.8887 7.38633 21.8008 8.05039 21.8008C8.91628 21.8008 9.75286 21.9505 10.5602 22.25C11.3674 22.543 12.0966 22.9727 12.7477 23.5391L11.2633 25.9805C10.8531 25.5378 10.3681 25.1992 9.8082 24.9648C9.24831 24.724 8.66237 24.6035 8.05039 24.6035C7.4319 24.6035 6.85247 24.7207 6.31211 24.9551C5.77174 25.1895 5.29974 25.5085 4.89609 25.9121C4.49245 26.3092 4.17344 26.7812 3.93906 27.3281C3.70469 27.8685 3.5875 28.4447 3.5875 29.0566C3.5875 29.6686 3.70469 30.2448 3.93906 30.7852C4.17344 31.319 4.49245 31.7878 4.89609 32.1914C5.29974 32.5951 5.77174 32.9141 6.31211 33.1484C6.85247 33.3828 7.4319 33.5 8.05039 33.5C8.66237 33.5 9.24831 33.3828 9.8082 33.1484C10.3681 32.9076 10.8531 32.5658 11.2633 32.123L12.7477 34.5645ZM19.2812 24.7988V30.4043H22.084C22.4681 30.4043 22.8294 30.3327 23.168 30.1895C23.5065 30.0397 23.8027 29.8379 24.0566 29.584C24.3105 29.3301 24.5091 29.0339 24.6523 28.6953C24.8021 28.3503 24.877 27.9857 24.877 27.6016C24.877 27.2174 24.8021 26.8561 24.6523 26.5176C24.5091 26.1725 24.3105 25.873 24.0566 25.6191C23.8027 25.3652 23.5065 25.1667 23.168 25.0234C22.8294 24.8737 22.4681 24.7988 22.084 24.7988H19.2812ZM19.2812 36H16.4785V21.9961H22.084C22.5983 21.9961 23.0931 22.0645 23.5684 22.2012C24.0436 22.3314 24.4863 22.5202 24.8965 22.7676C25.3132 23.0085 25.6908 23.3014 26.0293 23.6465C26.3743 23.985 26.6673 24.3626 26.9082 24.7793C27.1556 25.196 27.3444 25.6419 27.4746 26.1172C27.6113 26.5924 27.6797 27.0872 27.6797 27.6016C27.6797 28.0833 27.6178 28.5521 27.4941 29.0078C27.377 29.4635 27.2044 29.8965 26.9766 30.3066C26.7552 30.7168 26.4818 31.0944 26.1562 31.4395C25.8307 31.7845 25.4661 32.084 25.0625 32.3379L26.6152 36H23.6367L22.416 33.1777L19.2812 33.1973V36ZM45.5219 36H42.7289V26C42.7289 25.8047 42.6898 25.6224 42.6117 25.4531C42.5401 25.2839 42.4392 25.1374 42.309 25.0137C42.1853 24.8835 42.0388 24.7826 41.8695 24.7109C41.7003 24.6393 41.518 24.6035 41.3227 24.6035C41.1273 24.6035 40.9451 24.6393 40.7758 24.7109C40.6065 24.7826 40.4568 24.8835 40.3266 25.0137C40.2029 25.1374 40.1052 25.2839 40.0336 25.4531C39.962 25.6224 39.9262 25.8047 39.9262 26V36H37.1234V26C37.1234 25.8047 37.0876 25.6224 37.016 25.4531C36.9444 25.2839 36.8435 25.1374 36.7133 25.0137C36.5896 24.8835 36.4431 24.7826 36.2738 24.7109C36.1046 24.6393 35.9223 24.6035 35.727 24.6035C35.5316 24.6035 35.3493 24.6393 35.1801 24.7109C35.0108 24.7826 34.8611 24.8835 34.7309 25.0137C34.6072 25.1374 34.5095 25.2839 34.4379 25.4531C34.3663 25.6224 34.3305 25.8047 34.3305 26V36H31.5277V26C31.5277 25.4206 31.6352 24.877 31.85 24.3691C32.0714 23.8548 32.3708 23.4089 32.7484 23.0312C33.1326 22.6471 33.5785 22.3477 34.0863 22.1328C34.6006 21.9115 35.1475 21.8008 35.727 21.8008C36.2478 21.8008 36.7491 21.8952 37.2309 22.084C37.7126 22.2663 38.1456 22.5332 38.5297 22.8848C38.9138 22.5332 39.3435 22.2663 39.8187 22.084C40.3005 21.8952 40.8018 21.8008 41.3227 21.8008C41.9021 21.8008 42.4457 21.9115 42.9535 22.1328C43.4678 22.3477 43.9138 22.6471 44.2914 23.0312C44.6755 23.4089 44.975 23.8548 45.1898 24.3691C45.4112 24.877 45.5219 25.4206 45.5219 26V36Z" fill="#3BA936"/>
</svg>
