<svg width="72" height="79" viewBox="0 0 72 79" fill="none" xmlns="http://www.w3.org/2000/svg">
<path d="M36 0.5C55.6061 0.5 71.5 16.3939 71.5 36C71.5 55.6061 55.6061 71.5 36 71.5C16.3939 71.5 0.5 55.6061 0.5 36C0.5 16.3939 16.3939 0.5 36 0.5Z" fill="white" stroke="black"/>
<path d="M36.5 79L44.2942 68.5H28.7058L36.5 79Z" fill="white"/>
<path d="M47 22C47 28.6274 41.6274 34 35 34C28.3726 34 23 28.6274 23 22C23 15.3726 28.3726 10 35 10C41.6274 10 47 15.3726 47 22ZM24.6541 22C24.6541 27.7139 29.2861 32.3459 35 32.3459C40.7139 32.3459 45.3459 27.7139 45.3459 22C45.3459 16.2861 40.7139 11.6541 35 11.6541C29.2861 11.6541 24.6541 16.2861 24.6541 22Z" fill="black"/>
<path d="M20.5 21.5L50.5 21.5" stroke="black" stroke-linecap="round"/>
<path d="M29 13V21" stroke="black" stroke-linecap="round"/>
<path d="M41.5 13V21" stroke="black" stroke-linecap="round"/>
<path d="M56.8493 59C57.4707 59 57.9771 58.496 57.9474 57.8754C57.8212 55.2392 57.2518 52.6419 56.2616 50.1983C55.1309 47.4078 53.4736 44.8723 51.3842 42.7365C49.2949 40.6008 46.8145 38.9066 44.0847 37.7508C41.3549 36.5949 38.4291 36 35.4743 36C32.5196 36 29.5938 36.5949 26.864 37.7508C24.1341 38.9066 21.6537 40.6008 19.5644 42.7365C17.4751 44.8723 15.8178 47.4078 14.687 50.1983C13.6969 52.6419 13.1275 55.2392 13.0012 57.8754C12.9715 58.496 13.478 59 14.0993 59C14.7207 59 15.2212 58.496 15.2542 57.8755C15.3785 55.5415 15.8887 53.243 16.7658 51.0785C17.7834 48.567 19.275 46.2851 21.1554 44.3629C23.0358 42.4407 25.2682 40.916 27.725 39.8757C30.1818 38.8354 32.8151 38.3 35.4743 38.3C38.1336 38.3 40.7668 38.8354 43.2237 39.8757C45.6805 40.916 47.9129 42.4407 49.7932 44.3629C51.6736 46.2851 53.1652 48.567 54.1829 51.0785C55.06 53.243 55.5702 55.5415 55.6944 57.8755C55.7275 58.496 56.228 59 56.8493 59Z" fill="black"/>
<circle cx="29.5" cy="24.5" r="1.5" fill="black"/>
<circle cx="40.5" cy="24.5" r="1.5" fill="black"/>
<line x1="35" y1="24" x2="35" y2="28" stroke="black" stroke-width="2" stroke-linecap="round"/>
<path d="M22.5 45.1213C22.5 43.7631 23.0396 42.4604 24 41.5V41.5L25.4612 40.2275C25.4858 40.206 25.5 40.1749 25.5 40.1421V40.1421C25.5 40.0156 25.6762 39.9845 25.7194 40.1035L27.4703 44.9185C27.4901 44.9727 27.5144 45.0252 27.543 45.0753L28.489 46.7308C29.1493 47.8863 30.1253 48.8296 31.3026 49.4502L31.3518 49.4761C32.358 50.0066 33.4784 50.2838 34.6159 50.2838H35.6637C37.1069 50.2838 38.5126 49.8237 39.6765 48.9703V48.9703C40.5463 48.3326 41.2516 47.4968 41.7339 46.5322L42.5 45L44.2774 40.1936V40.1936C44.389 39.8459 44.8023 39.7015 45.1061 39.9041L46 40.5L47.084 41.2226C47.3439 41.3959 47.5 41.6876 47.5 42V42V51V55.5V56.5V56.5C47.5 56.7761 47.2761 57 47 57H45.5H22.5405C22.5182 57 22.5 56.9818 22.5 56.9595V56.9595V54.9054V50.2838L22.5 45.1213Z" fill="#3BA936" stroke="black"/>
</svg>
