<svg width="89" height="17" viewBox="0 0 89 17" fill="none" xmlns="http://www.w3.org/2000/svg">
<path d="M13.4051 16H10.7488V9.35938C10.7488 9.17708 10.713 9.00456 10.6414 8.8418C10.5763 8.67904 10.4819 8.53581 10.3582 8.41211C10.2345 8.28841 10.0913 8.19401 9.92852 8.12891C9.76576 8.05729 9.59323 8.02148 9.41094 8.02148C9.22865 8.02148 9.05612 8.05729 8.89336 8.12891C8.73711 8.19401 8.59714 8.28841 8.47344 8.41211C8.35625 8.53581 8.26185 8.67904 8.19024 8.8418C8.12513 9.00456 8.09258 9.17708 8.09258 9.35938V16H5.42656V9.35938C5.42656 9.17708 5.39076 9.00456 5.31914 8.8418C5.25404 8.67904 5.15964 8.53581 5.03594 8.41211C4.91224 8.28841 4.76901 8.19401 4.60625 8.12891C4.44349 8.05729 4.27096 8.02148 4.08867 8.02148C3.90638 8.02148 3.73385 8.05729 3.57109 8.12891C3.41484 8.19401 3.27487 8.28841 3.15117 8.41211C3.03399 8.53581 2.93958 8.67904 2.86797 8.8418C2.80287 9.00456 2.77031 9.17708 2.77031 9.35938V16H0.104298V5.54102H0.748829L1.47149 6.3418C1.84258 6.0293 2.24948 5.78841 2.69219 5.61914C3.14141 5.44336 3.6069 5.35547 4.08867 5.35547C4.57695 5.35547 5.05221 5.44661 5.51445 5.62891C5.9832 5.8112 6.39336 6.12695 6.74492 6.57617C6.90768 6.35482 7.09323 6.16602 7.30156 6.00977C7.5099 5.85352 7.728 5.72656 7.95586 5.62891C8.19024 5.53125 8.43112 5.46289 8.67852 5.42383C8.92591 5.37826 9.17005 5.35547 9.41094 5.35547C9.96432 5.35547 10.4819 5.45964 10.9637 5.66797C11.452 5.8763 11.8751 6.16276 12.2332 6.52734C12.5978 6.88542 12.8842 7.30859 13.0926 7.79688C13.3009 8.28516 13.4051 8.80599 13.4051 9.35938V16ZM20.6027 2.69922C20.6027 2.94661 20.5539 3.17773 20.4563 3.39258C20.3651 3.60742 20.2382 3.79622 20.0754 3.95898C19.9126 4.11523 19.7206 4.24219 19.4992 4.33984C19.2844 4.43099 19.0533 4.47656 18.8059 4.47656C18.5585 4.47656 18.3241 4.43099 18.1027 4.33984C17.8879 4.24219 17.6991 4.11523 17.5363 3.95898C17.3801 3.79622 17.2531 3.60742 17.1555 3.39258C17.0643 3.17773 17.0188 2.94661 17.0188 2.69922C17.0188 2.45833 17.0643 2.23047 17.1555 2.01562C17.2531 1.79427 17.3801 1.60547 17.5363 1.44922C17.6991 1.28646 17.8879 1.15951 18.1027 1.06836C18.3241 0.970703 18.5585 0.921875 18.8059 0.921875C19.0533 0.921875 19.2844 0.970703 19.4992 1.06836C19.7206 1.15951 19.9126 1.28646 20.0754 1.44922C20.2382 1.60547 20.3651 1.79427 20.4563 2.01562C20.5539 2.23047 20.6027 2.45833 20.6027 2.69922ZM20.1438 16H17.4582V5.54102H20.1438V16ZM26.9508 16H24.2848V5.54102H24.9293L25.8082 6.55664C26.2379 6.16602 26.7229 5.86654 27.2633 5.6582C27.8102 5.44336 28.3798 5.33594 28.9723 5.33594C29.6103 5.33594 30.2125 5.45964 30.7789 5.70703C31.3453 5.94792 31.8401 6.2832 32.2633 6.71289C32.6865 7.13607 33.0185 7.63411 33.2594 8.20703C33.5068 8.77344 33.6305 9.37891 33.6305 10.0234V16H30.9645V10.0234C30.9645 9.75 30.9124 9.49284 30.8082 9.25195C30.704 9.00456 30.5608 8.78971 30.3785 8.60742C30.1962 8.42513 29.9846 8.2819 29.7438 8.17773C29.5029 8.07357 29.2457 8.02148 28.9723 8.02148C28.6923 8.02148 28.4286 8.07357 28.1813 8.17773C27.9339 8.2819 27.719 8.42513 27.5367 8.60742C27.3544 8.78971 27.2112 9.00456 27.107 9.25195C27.0029 9.49284 26.9508 9.75 26.9508 10.0234V16ZM40.7793 2.69922C40.7793 2.94661 40.7305 3.17773 40.6328 3.39258C40.5417 3.60742 40.4147 3.79622 40.252 3.95898C40.0892 4.11523 39.8971 4.24219 39.6758 4.33984C39.4609 4.43099 39.2298 4.47656 38.9824 4.47656C38.735 4.47656 38.5007 4.43099 38.2793 4.33984C38.0645 4.24219 37.8757 4.11523 37.7129 3.95898C37.5566 3.79622 37.4297 3.60742 37.332 3.39258C37.2409 3.17773 37.1953 2.94661 37.1953 2.69922C37.1953 2.45833 37.2409 2.23047 37.332 2.01562C37.4297 1.79427 37.5566 1.60547 37.7129 1.44922C37.8757 1.28646 38.0645 1.15951 38.2793 1.06836C38.5007 0.970703 38.735 0.921875 38.9824 0.921875C39.2298 0.921875 39.4609 0.970703 39.6758 1.06836C39.8971 1.15951 40.0892 1.28646 40.252 1.44922C40.4147 1.60547 40.5417 1.79427 40.6328 2.01562C40.7305 2.23047 40.7793 2.45833 40.7793 2.69922ZM40.3203 16H37.6348V5.54102H40.3203V16Z" fill="white"/>
<path d="M55.9262 14.5645C55.2751 15.1243 54.546 15.554 53.7387 15.8535C52.9314 16.153 52.0948 16.3027 51.2289 16.3027C50.5648 16.3027 49.9236 16.2148 49.3051 16.0391C48.6931 15.8698 48.1169 15.6289 47.5766 15.3164C47.0427 14.9974 46.5544 14.6165 46.1117 14.1738C45.669 13.7311 45.2882 13.2428 44.9691 12.709C44.6566 12.1686 44.4125 11.5924 44.2367 10.9805C44.0675 10.362 43.9828 9.7207 43.9828 9.05664C43.9828 8.39258 44.0675 7.7513 44.2367 7.13281C44.4125 6.51432 44.6566 5.93815 44.9691 5.4043C45.2882 4.86393 45.669 4.3724 46.1117 3.92969C46.5544 3.48698 47.0427 3.10938 47.5766 2.79688C48.1169 2.47786 48.6931 2.23372 49.3051 2.06445C49.9236 1.88867 50.5648 1.80078 51.2289 1.80078C52.0948 1.80078 52.9314 1.95052 53.7387 2.25C54.546 2.54297 55.2751 2.97266 55.9262 3.53906L54.4418 5.98047C54.0316 5.53776 53.5466 5.19922 52.9867 4.96484C52.4268 4.72396 51.8409 4.60352 51.2289 4.60352C50.6104 4.60352 50.031 4.7207 49.4906 4.95508C48.9503 5.18945 48.4783 5.50846 48.0746 5.91211C47.671 6.30924 47.352 6.78125 47.1176 7.32812C46.8832 7.86849 46.766 8.44466 46.766 9.05664C46.766 9.66862 46.8832 10.2448 47.1176 10.7852C47.352 11.319 47.671 11.7878 48.0746 12.1914C48.4783 12.5951 48.9503 12.9141 49.4906 13.1484C50.031 13.3828 50.6104 13.5 51.2289 13.5C51.8409 13.5 52.4268 13.3828 52.9867 13.1484C53.5466 12.9076 54.0316 12.5658 54.4418 12.123L55.9262 14.5645ZM62.4598 4.79883V10.4043H65.2625C65.6466 10.4043 66.0079 10.3327 66.3465 10.1895C66.685 10.0397 66.9813 9.83789 67.2352 9.58398C67.4891 9.33008 67.6876 9.03385 67.8309 8.69531C67.9806 8.35026 68.0555 7.98568 68.0555 7.60156C68.0555 7.21745 67.9806 6.85612 67.8309 6.51758C67.6876 6.17253 67.4891 5.87305 67.2352 5.61914C66.9813 5.36523 66.685 5.16667 66.3465 5.02344C66.0079 4.8737 65.6466 4.79883 65.2625 4.79883H62.4598ZM62.4598 16H59.657V1.99609H65.2625C65.7768 1.99609 66.2716 2.06445 66.7469 2.20117C67.2221 2.33138 67.6648 2.52018 68.075 2.76758C68.4917 3.00846 68.8693 3.30143 69.2078 3.64648C69.5529 3.98503 69.8458 4.36263 70.0867 4.7793C70.3341 5.19596 70.5229 5.64193 70.6531 6.11719C70.7898 6.59245 70.8582 7.08724 70.8582 7.60156C70.8582 8.08333 70.7964 8.55208 70.6727 9.00781C70.5555 9.46354 70.3829 9.89648 70.1551 10.3066C69.9337 10.7168 69.6603 11.0944 69.3348 11.4395C69.0092 11.7845 68.6447 12.084 68.241 12.3379L69.7938 16H66.8152L65.5945 13.1777L62.4598 13.1973V16ZM88.7004 16H85.9074V6C85.9074 5.80469 85.8684 5.6224 85.7902 5.45312C85.7186 5.28385 85.6177 5.13737 85.4875 5.01367C85.3638 4.88346 85.2173 4.78255 85.048 4.71094C84.8788 4.63932 84.6965 4.60352 84.5012 4.60352C84.3059 4.60352 84.1236 4.63932 83.9543 4.71094C83.785 4.78255 83.6353 4.88346 83.5051 5.01367C83.3814 5.13737 83.2837 5.28385 83.2121 5.45312C83.1405 5.6224 83.1047 5.80469 83.1047 6V16H80.302V6C80.302 5.80469 80.2661 5.6224 80.1945 5.45312C80.1229 5.28385 80.022 5.13737 79.8918 5.01367C79.7681 4.88346 79.6216 4.78255 79.4523 4.71094C79.2831 4.63932 79.1008 4.60352 78.9055 4.60352C78.7102 4.60352 78.5279 4.63932 78.3586 4.71094C78.1893 4.78255 78.0396 4.88346 77.9094 5.01367C77.7857 5.13737 77.688 5.28385 77.6164 5.45312C77.5448 5.6224 77.509 5.80469 77.509 6V16H74.7063V6C74.7063 5.42057 74.8137 4.87695 75.0285 4.36914C75.2499 3.85482 75.5494 3.40885 75.927 3.03125C76.3111 2.64714 76.757 2.34766 77.2648 2.13281C77.7792 1.91146 78.326 1.80078 78.9055 1.80078C79.4263 1.80078 79.9276 1.89518 80.4094 2.08398C80.8911 2.26628 81.3241 2.5332 81.7082 2.88477C82.0923 2.5332 82.522 2.26628 82.9973 2.08398C83.479 1.89518 83.9803 1.80078 84.5012 1.80078C85.0806 1.80078 85.6242 1.91146 86.132 2.13281C86.6464 2.34766 87.0923 2.64714 87.4699 3.03125C87.854 3.40885 88.1535 3.85482 88.3684 4.36914C88.5897 4.87695 88.7004 5.42057 88.7004 6V16Z" fill="#3BA936"/>
</svg>
